<svg xmlns="http://www.w3.org/2000/svg" xml:space="preserve" width="817" height="443" overflow="hidden"><defs><clipPath id="a"><path d="M897-680h817v443H897z"/></clipPath><clipPath id="b"><path d="M898-679h816v441H898z"/></clipPath><clipPath id="c"><path d="M898-679h816v442H898z"/></clipPath><clipPath id="d"><path d="M898-679h816v442H898z"/></clipPath></defs><g clip-path="url(#a)" transform="translate(-897 680)"><g clip-path="url(#b)"><g clip-path="url(#c)"><g clip-path="url(#d)"><path fill="#222020" d="M1486.112-447.196c-2.318-12.601-7.52-24.03-14.485-34.706-7.664-11.749-17.114-21.955-27.396-31.425-14.418-13.276-30.052-25.058-45.979-36.437-18.517-13.221-38.303-24.339-58.45-34.85-1.06-.553-2.219-.934-3.128-1.83-.333-19.236-.664-38.486-.993-57.75-.128-7.745-.144-15.49-.288-23.234-.095-5.1-2.452-7.7-7.542-8.026-10.687-.725-21.39-1.333-32.087-1.953-8.02-.487-16.055-.78-24.07-1.405-5.844-.454-11.645 0-17.418.553-7.475.686-14.723 2.467-21.877 4.68-.28.346-.727.51-1.165.426l-.555.088c-.598.642-1.458.758-2.217 1.051a87.868 87.868 0 0 0-28.56 18.382c-3.728 3.557-6.994 7.529-10.282 11.473-.072.17-.155.334-.25.492-10.065 13.603-16.637 28.826-20.924 45.1-1.63 6.145-2.773 12.385-3.798 18.735l-2.602 1.024c-6.1 2.423-12.2 4.79-18.25 7.29-24.317 10.04-45.685 24.401-63.775 43.54-13.038 13.829-23.092 29.384-28.433 47.771a216.065 216.065 0 0 0-8.518 64.129c.222 13.718 2.13 27.105 6.744 40.138 8.385 23.67 19.931 45.547 36.168 64.831 20.17 23.963 45.153 41.155 74.14 52.727 28.987 11.573 59.234 16.772 90.25 18.028 16.162.637 32.346.353 48.474-.852a314.048 314.048 0 0 0 44.366-6.212c19.965-4.381 38.964-11.285 56.66-21.607 13.37-7.805 25.615-17.148 37.155-27.381 25.932-22.923 41.915-51.566 48.625-85.398 2.462-12.441 2.94-25.053 2.85-37.698-.022-9.941-.588-19.875-2.39-29.694Zm-211.727-217.145 46.716 2.738c.417 25.125.822 50.05 1.232 74.96l-25.51 16.511-28.533-20.633c2.013-24.378 4.037-48.756 6.095-73.576Zm-94.093 79.484c3.383-16.595 9.039-32.277 18.855-46.228 13.154-18.647 31.133-29.445 53.743-32.637a31.47 31.47 0 0 1 6.976-.47c-.643 11.185-1.808 22.304-2.662 33.44-.854 11.134-1.84 22.17-2.773 33.35-1.885.453-3.282-.233-4.73-.421-13.448-1.798-26.52-.166-39.263 4.276-9.145 3.186-18.24 6.533-27.362 9.808-.86.304-1.73.553-2.551.846-.539-.697-.361-1.355-.233-1.964Zm-115.5 204.013c-1.32-2.688-1.664-5.161-2.034-7.551-.888-5.885-1.492-11.804-1.914-17.756a172.328 172.328 0 0 1-.305-18.205c.177-5.028.422-10.073.86-15.107.382-4.386.759-8.779 1.336-13.132a136.416 136.416 0 0 1 4.27-21.253c.76-2.539 1.359-5.133 2.718-7.65 1.037.813.96 2.014 1.186 2.965a107.25 107.25 0 0 1 2.357 16.014c.554 7.153 1.31 14.311.91 21.458-.305 5.487-.272 10.985-.827 16.517-.443 4.37-.687 8.773-1.264 13.132-1.26 9.548-2.94 19.012-6.1 28.151-.277.658-.655 1.311-1.192 2.417Zm9.15 27.199a3174.512 3174.512 0 0 0-4.707-9.957c6.793-4.58 9.238-11.738 11.568-18.957.682-2.096 1.231-4.242 1.746-6.389 2.712-11.401 4.221-22.978 5.097-34.65.842-11.306.983-22.652.421-33.975-.432-8.923-1.391-17.801-3.754-26.464-1.447-5.299-3.444-10.327-8.041-14.078a90.544 90.544 0 0 1 7.06-9.902c2.306-.52 3.96.708 5.512 2.008 2.29 1.925 3.882 4.398 5.335 6.998 3.577 6.527 5.717 13.564 7.265 20.788 3.221 15.029 4.132 30.241 3.543 45.586a209.404 209.404 0 0 1-4.625 37.488c-2.39 10.732-5.6 21.181-11.09 30.812-1.836 3.219-3.91 6.267-6.75 8.701-2.374 2.052-4.996 3.485-8.58 1.986Zm384.315-63.199c-.106 14.936-.97 29.832-2.27 44.718-1.108 12.479-2.567 24.892-4.058 37.344a9.386 9.386 0 0 1-1.78 4.271 132.757 132.757 0 0 1-22.327 25.224c-10.537 9.16-21.478 17.762-33.458 24.992-16.764 10.117-34.865 16.811-53.936 21.02a293.595 293.595 0 0 1-40.261 5.703 433.497 433.497 0 0 1-36.823 1.289c-26.62-.193-52.873-3.18-78.482-10.775-25.732-7.634-49.219-19.455-69.615-37.062a168 168 0 0 1-33.773-40.033c-.427-.697-1.01-1.328-1.11-2.467 6.717-1.842 11.336-6.234 15.18-11.617 5.151-7.191 8.512-15.278 11.246-23.625 3.82-11.683 6.1-23.692 7.537-35.89a225.57 225.57 0 0 0 1.463-34.218c-.554-16.358-2.54-32.51-8.318-47.971-2.346-6.251-5.34-12.17-10.132-16.971-1.703-1.72-3.705-3.02-5.84-4.425a143.249 143.249 0 0 1 11.923-11.202c14.93-12.656 31.661-22.265 49.85-29.412 3.694-1.455 7.32-3.098 11.092-4.359 8.906-2.976 17.868-5.797 26.685-9.055 8.818-3.258 17.68-6.472 26.62-9.476a67.452 67.452 0 0 1 23.158-3.568c3.418.088 6.82.5 10.16 1.228a23.605 23.605 0 0 1 9.25 4.149c9.927 7.346 19.992 14.537 30.013 21.8l1.11.808c3.836 2.716 6.238 2.766 10.142.26l22.089-14.283a533.587 533.587 0 0 1 5.545-3.529c4.142 2.179 8.319 4.337 12.45 6.549 17.352 9.283 34.383 19.134 50.31 30.696 15.4 11.168 30.606 22.58 44.481 35.651 4.504 4.248 8.78 8.707 12.9 13.326a11.333 11.333 0 0 1 2.556 4.807 180.05 180.05 0 0 1 4.664 25.799c1.514 13.398 1.853 26.84 1.753 40.299Zm15.272 20.556a130.942 130.942 0 0 1-6.505 31.53c-.145.432-.338.852-.527 1.272-.105.244-.238.476-.588 1.157 3.007-32.521 4.736-64.588 1.231-96.755.821.227.827.858 1.032 1.35a71.925 71.925 0 0 1 4.875 19.765 218.756 218.756 0 0 1 .476 41.675ZM956.336-488.656c-31.998-.055-58.229 26.137-58.229 58.077 0 31.94 26.192 58.033 58.285 57.988 32.135-.073 58.128-26.116 58.058-58.171-.107-31.912-26.143-57.855-58.114-57.894Zm-.188 101.783c-22.62-.056-43.622-18.415-43.683-43.756-.067-24.107 19.775-43.849 43.977-43.7 25.316.133 43.971 21.065 43.627 43.728.3 23.913-19.947 43.788-43.91 43.733ZM1655.643-608.377c-32.077.042-58.046 26.014-58.003 58.01v.155c.106 31.967 26.176 57.922 58.086 57.828 32.112.289 58.378-25.443 58.668-57.474.29-32.03-25.507-58.231-57.618-58.52a58.597 58.597 0 0 0-1.133 0Zm.039 101.721c-24.132.028-43.717-19.463-43.745-43.534v-.133c0-26.413 22.094-44.253 43.894-43.7 21.662-.47 43.81 17.265 43.739 43.85-.021 24.055-19.589 43.539-43.705 43.518l-.161-.001Z"/><path fill="#D3D3D5" d="M1232.399-673.579a.945.945 0 0 0-1.165.426c.438.084.885-.08 1.165-.426Z"/><path fill="#DAD394" d="M1451.823-482.947a11.344 11.344 0 0 0-2.556-4.807c-4.12-4.619-8.396-9.078-12.9-13.326-13.864-13.071-29.081-24.483-44.48-35.651-15.95-11.562-32.96-21.413-50.31-30.696-4.138-2.212-8.32-4.37-12.451-6.549-1.946 1.245-3.744 2.379-5.546 3.529l-22.088 14.283c-3.882 2.522-6.306 2.456-10.143-.26l-1.11-.808c-10.009-7.263-20.074-14.454-30.001-21.778a23.603 23.603 0 0 0-9.25-4.149 54.19 54.19 0 0 0-10.16-1.25 67.454 67.454 0 0 0-23.165 3.524c-8.916 3.004-17.745 6.212-26.618 9.476-8.873 3.263-17.78 6.084-26.686 9.055-3.76 1.261-7.387 2.904-11.091 4.359-18.19 7.147-34.938 16.755-49.85 29.412a143.417 143.417 0 0 0-11.945 11.246c2.134 1.416 4.136 2.716 5.84 4.425 4.79 4.823 7.763 10.72 10.131 16.971 5.8 15.461 7.764 31.613 8.318 47.97a225.448 225.448 0 0 1-1.463 34.219c-1.426 12.198-3.716 24.207-7.537 35.89-2.734 8.347-6.1 16.418-11.247 23.625-3.843 5.361-8.462 9.753-15.178 11.617.094 1.139.677 1.77 1.109 2.467a167.996 167.996 0 0 0 33.795 40.071c20.397 17.596 43.883 29.418 69.615 37.062 25.61 7.595 51.863 10.582 78.482 10.776a430.7 430.7 0 0 0 36.823-1.289 293.762 293.762 0 0 0 40.261-5.731c19.071-4.187 37.156-10.88 53.937-21.02 11.979-7.23 22.931-15.832 33.457-24.992a132.767 132.767 0 0 0 22.327-25.23 9.4 9.4 0 0 0 1.78-4.27c1.492-12.435 2.967-24.893 4.06-37.344 1.297-14.886 2.162-29.783 2.268-44.718.1-13.459-.239-26.901-1.764-40.298a180.187 180.187 0 0 0-4.664-25.811Zm-16.238 53.978c-3.121 16.7-11.867 29.97-25.221 40.331-10.57 8.203-22.565 13.586-35.264 17.508-12.295 3.8-24.906 6.084-37.711 7.434a281.94 281.94 0 0 1-34.306 1.51c-7.764-.127-15.488-.918-23.192-1.753-9.721-1.062-19.41-2.434-29.026-4.248-21.3-4.016-42.08-9.681-61.556-19.483-12.3-6.201-23.524-13.873-32.88-24.074-10.97-11.97-17.846-25.943-19.92-42.04-4.397-34.147 15.106-69.312 51.02-80.801 11.59-3.706 23.469-4.697 35.57-3.701a105.242 105.242 0 0 1 36.03 9.332c15.273 7.092 28.022 17.364 38.547 30.424.688.852 1.365 1.715 2.219 2.805a90.81 90.81 0 0 1 51.635-24.738c10.055-1.405 20.12-1.615 30.024.692 19.537 4.547 35.354 14.614 45.874 32.083 4.825 8.005 7.598 16.778 8.873 25.999a101.899 101.899 0 0 1-.716 32.72Z"/><path fill="#DAD394" d="M1322.349-586.621c-.41-24.893-.815-49.835-1.231-74.96l-46.733-2.76c-2.058 24.82-4.082 49.198-6.1 73.57l28.554 20.639Z"/><path fill="#AEA980" d="M1183.092-583.74c9.123-3.274 18.218-6.637 27.362-9.807 12.755-4.425 25.815-6.085 39.263-4.276 1.448.188 2.846.874 4.731.42.938-11.18 1.924-22.259 2.773-33.35.848-11.09 2.018-22.254 2.662-33.439a31.483 31.483 0 0 0-6.977.47c-22.609 3.192-40.588 13.99-53.742 32.637-9.838 13.951-15.495 29.639-18.856 46.228-.127.609-.305 1.267.25 1.964.804-.271 1.675-.542 2.534-.846Z"/><path fill="#DAD394" d="M1089.293-364.337c5.49-9.631 8.701-20.08 11.091-30.812a209.404 209.404 0 0 0 4.625-37.488c.589-15.345-.32-30.557-3.543-45.586-1.548-7.224-3.688-14.261-7.265-20.788-1.425-2.6-3.045-5.073-5.335-6.998-1.553-1.3-3.205-2.528-5.513-2.008a90.6 90.6 0 0 0-7.081 9.902c4.597 3.751 6.594 8.779 8.04 14.078 2.364 8.663 3.328 17.541 3.755 26.464a274.425 274.425 0 0 1-.42 33.975c-.877 11.672-2.386 23.233-5.098 34.65-.515 2.147-1.064 4.293-1.746 6.389-2.33 7.219-4.775 14.383-11.568 18.957 1.648 3.478 3.218 6.797 4.708 9.957 3.583 1.499 6.205.067 8.601-1.986 2.84-2.439 4.914-5.487 6.75-8.706Z"/><path fill="#545456" d="M1073.35-424.544c.554-5.498.554-11.008.853-16.501.4-7.147-.332-14.305-.909-21.457a107.212 107.212 0 0 0-2.357-16.014c-.227-.952-.15-2.152-1.187-2.965-1.358 2.517-1.957 5.111-2.717 7.65a136.512 136.512 0 0 0-4.27 21.253c-.555 4.353-.954 8.745-1.337 13.132-.438 5.034-.682 10.078-.859 15.107-.22 6.069-.118 12.146.305 18.204.42 5.952 1.025 11.871 1.913 17.757.36 2.39.715 4.862 2.036 7.551.554-1.107.914-1.754 1.148-2.434 3.177-9.139 4.857-18.603 6.099-28.151.566-4.381.81-8.784 1.281-13.132Z"/><path fill="#D9D294" d="M1468.167-457.734c-.206-.492-.21-1.106-1.032-1.35 3.505 32.167 1.774 64.234-1.231 96.755.349-.681.482-.913.587-1.157.189-.42.383-.84.528-1.272a130.94 130.94 0 0 0 6.504-31.53 218.753 218.753 0 0 0-.482-41.659 71.957 71.957 0 0 0-4.874-19.787Z"/><path fill="#DAD394" d="M956.442-474.329c-24.202-.127-44.044 19.615-43.977 43.7.072 25.319 21.073 43.7 43.694 43.739 23.963.055 44.21-19.82 43.91-43.733.344-22.641-18.311-43.573-43.627-43.706ZM1655.853-594.023c-21.8-.553-43.894 17.287-43.894 43.7-.04 24.135 19.54 43.734 43.736 43.775 24.196.041 43.845-19.49 43.886-43.625.094-26.585-22.066-44.32-43.728-43.85Z"/><path fill="#222020" d="M1427.412-487.699c-10.538-17.447-26.337-27.514-45.874-32.083-9.905-2.307-19.964-2.097-30.025-.692a90.807 90.807 0 0 0-51.635 24.738 224.002 224.002 0 0 0-2.218-2.805c-10.537-13.071-23.291-23.343-38.548-30.424a105.221 105.221 0 0 0-35.98-9.337c-12.1-.996-23.98 0-35.57 3.7-35.913 11.49-55.417 46.654-51.02 80.801 2.074 16.103 8.951 30.076 19.92 42.041 9.356 10.2 20.58 17.872 32.88 24.073 19.465 9.803 40.245 15.489 61.557 19.483 9.617 1.814 19.304 3.186 29.026 4.248 7.703.836 15.427 1.627 23.192 1.754 11.449.199 22.9-.3 34.289-1.494 12.788-1.361 25.399-3.634 37.71-7.434 12.7-3.922 24.695-9.305 35.265-17.508 13.353-10.361 22.1-23.631 25.221-40.331a101.87 101.87 0 0 0 .693-32.748c-1.286-9.204-4.06-17.978-8.883-25.982Zm-4.298 40.287c-.61 7.025-.666 14.139-2.834 20.937a50.982 50.982 0 0 1-10.975 19.267c-9.228 10.057-20.852 16.191-33.495 20.722a159.255 159.255 0 0 1-28.317 7.058c-5.334.869-10.731 1.449-16.138 1.892-7.63.62-15.25 1.145-22.498 1.018h-6.51c-4.61 0-9.168-.631-13.755-.974-4.308-.326-8.59-.912-12.893-1.3-4.303-.387-8.745-1.062-13.082-1.814-6.51-1.106-13.021-2.29-19.471-3.701a218.724 218.724 0 0 1-29.391-8.38 176.525 176.525 0 0 1-18.545-7.91c-11.391-5.764-21.629-13.133-29.947-22.791a61.024 61.024 0 0 1-13.864-28.438 62.964 62.964 0 0 1-1.02-16.186 55.459 55.459 0 0 1 3.055-14.764c7.173-21.695 26.031-37.479 48.696-40.757a93.64 93.64 0 0 1 46.584 5.759 92.244 92.244 0 0 1 21.966 12.65 90.161 90.161 0 0 1 21.279 23.344c.394.62.77 1.261 1.225 1.842 2.812 3.623 7.603 3.961 10.842.692 1.814-1.831 3.372-3.917 5.247-5.681a85.124 85.124 0 0 1 7.969-6.815 79.168 79.168 0 0 1 31.055-13.747 80.935 80.935 0 0 1 21.706-1.526c12.134.802 23.147 4.779 32.753 12.44 10.43 8.298 16.304 19.206 18.794 32.123a44.698 44.698 0 0 1 1.059 9.553c-.05 1.847.671 3.612.505 5.487Z"/><path fill="#545456" d="M1421.544-462.447c-2.49-12.916-8.363-23.786-18.794-32.122-9.605-7.661-20.619-11.617-32.753-12.441a80.972 80.972 0 0 0-21.705 1.527 79.163 79.163 0 0 0-31.056 13.746 85.685 85.685 0 0 0-7.97 6.815c-1.873 1.765-3.432 3.872-5.246 5.681-3.238 3.269-8.029 2.932-10.841-.691-.455-.581-.832-1.223-1.226-1.842a90.141 90.141 0 0 0-21.278-23.344 92.267 92.267 0 0 0-21.966-12.651 93.654 93.654 0 0 0-46.584-5.758 60.406 60.406 0 0 0-21.307 7.318 60.959 60.959 0 0 0-27.39 33.439 55.498 55.498 0 0 0-3.055 14.764 63.004 63.004 0 0 0 1.02 16.185 61.041 61.041 0 0 0 13.864 28.439c8.352 9.658 18.562 17.026 29.947 22.79a176.315 176.315 0 0 0 18.545 7.91 218.594 218.594 0 0 0 29.392 8.381c6.449 1.41 12.96 2.572 19.47 3.701 4.337.752 8.702 1.421 13.083 1.814 4.38.393 8.585.973 12.893 1.3 4.586.343 9.144.984 13.753.973h6.51c7.249.128 14.87-.398 22.5-1.017 5.407-.443 10.803-1.024 16.137-1.892a159.292 159.292 0 0 0 28.323-7.064c12.643-4.531 24.267-10.665 33.495-20.722a50.982 50.982 0 0 0 10.975-19.267c2.168-6.798 2.218-13.912 2.834-20.937.16-1.875-.555-3.64-.51-5.482a44.7 44.7 0 0 0-1.06-9.553Zm-199.57-2.854c-.728 5.498-2.291 10.621-5.613 15.063-3.644 4.829-8.025 8.546-14.297 9.652-5.912 1.062-10.786-.907-14.974-4.707-4.602-4.199-6.699-9.686-7.519-15.843a32.223 32.223 0 0 1 2.285-16.705c3.233-7.911 8.557-13.669 17.253-15.694a18.01 18.01 0 0 1 3.038-.298c7.404.243 12.783 3.916 16.31 10.178a28.764 28.764 0 0 1 3.516 18.354Zm103.353 55.764c-5.595 7.822-13.382 12.353-23.031 13.719-6.488.924-12.854.813-19.082-1.283-7.765-2.611-13.554-7.629-17.747-14.598-3.937-6.567-5.939-13.747-7.142-21.248a53.51 53.51 0 0 1-.5-7.406 18.298 18.298 0 0 1 .172-4.348c1.226-1.959 2.973-2.833 5.158-3.413 10.747-2.844 21.444-5.847 32.164-8.807a8.594 8.594 0 0 1 7.1.979c6.654 3.922 13.486 7.573 20.246 11.34 2.413 1.344 4.809 2.716 7.21 4.049a9.675 9.675 0 0 1 3.327 3.093 41.84 41.84 0 0 1-7.875 27.923Zm69.26-25.097c-3.123 5.117-7.531 8.569-13.637 9.271-4.741.554-8.873-1.194-12.445-4.237-5.64-4.818-8.585-11.063-9.777-18.299a32.42 32.42 0 0 1 1.714-17.297c1.94-5.023 4.908-9.238 9.766-11.893 6.006-3.275 13.709-2.014 18.745 2.528 7.031 6.339 9.843 14.382 9.899 25.445.204 4.05-1.226 9.498-4.265 14.482Z"/><path fill="#222020" d="M1329.903-440.553c-2.424-1.333-4.82-2.705-7.21-4.049-6.76-3.767-13.582-7.418-20.248-11.34a8.592 8.592 0 0 0-7.098-.979c-10.714 2.96-21.412 5.963-32.165 8.807-2.184.58-3.932 1.454-5.157 3.413a18.298 18.298 0 0 0-.172 4.348 53.823 53.823 0 0 0 .5 7.406c1.203 7.501 3.204 14.681 7.142 21.248 4.182 6.969 9.982 11.987 17.746 14.598 6.228 2.096 12.595 2.212 19.083 1.283 9.65-1.366 17.435-5.897 23.031-13.719a41.845 41.845 0 0 0 7.913-27.923 9.67 9.67 0 0 0-3.365-3.093Zm-12.983 24.268c-3.949 5.637-9.384 8.85-16.193 9.957a29.966 29.966 0 0 1-12.034-.266 21.016 21.016 0 0 1-13.038-9.099 42.581 42.581 0 0 1-6.655-18.742c-.138-1.172-.782-2.29-.427-3.584 1.003-1.173 2.318-1.106 3.433-1.405 7.763-2.213 15.566-4.271 23.33-6.472a4.512 4.512 0 0 1 3.699.276c7.62 4.289 15.243 8.567 22.87 12.834.232.153.45.325.655.514-.766 5.803-2.308 11.219-5.64 15.987Z"/><path fill="#3397AF" d="M1202.163-493.822a18.01 18.01 0 0 0-3.038.298c-8.695 2.025-14.02 7.783-17.253 15.694a32.233 32.233 0 0 0-2.285 16.705c.821 6.157 2.918 11.644 7.52 15.843 4.17 3.8 9.045 5.769 14.974 4.707 6.272-1.106 10.653-4.834 14.268-9.663 3.328-4.426 4.886-9.565 5.612-15.063a28.771 28.771 0 0 0-3.47-18.343c-3.544-6.262-8.924-9.935-16.328-10.178ZM1388.953-474.561c-5.036-4.542-12.755-5.803-18.745-2.528-4.858 2.655-7.825 6.87-9.766 11.893a32.42 32.42 0 0 0-1.714 17.297c1.192 7.252 4.138 13.481 9.777 18.299 3.566 3.043 7.704 4.779 12.445 4.237 6.1-.702 10.537-4.154 13.637-9.271 3.039-4.978 4.47-10.432 4.265-14.493-.056-11.035-2.868-19.117-9.9-25.434Z"/><path fill="#804B47" d="M1299.058-445.603a4.515 4.515 0 0 0-3.7-.277c-7.763 2.213-15.566 4.276-23.33 6.472-1.11.316-2.43.233-3.433 1.406-.355 1.294.289 2.411.427 3.584a42.577 42.577 0 0 0 6.655 18.741 21.017 21.017 0 0 0 13.038 9.083c3.952.902 8.046.992 12.034.266 6.81-1.107 12.245-4.32 16.193-9.957 3.327-4.768 4.874-10.184 5.634-15.97a5.153 5.153 0 0 0-.653-.515c-7.636-4.281-15.257-8.559-22.865-12.833Z"/></g></g></g></g></svg>